<?xml version="1.0" encoding="UTF-8"?>
<svg version="1.1" viewBox="0 0 2048 2048" width="1280" height="1280" xmlns="http://www.w3.org/2000/svg">
<path transform="translate(0)" d="m0 0h2048v2048h-2048z"/>
<path transform="translate(340,946)" d="m0 0 9 1 11 7 8 8 6 11v13l-4 8-10 13-8 8-3 6-1 6-1 35 2 9 6 8 8 8 7 8 11 6 29 1h31l5-3 10-11 3-4h2l2-4 7-11 1-12v-26l-1-9-6-8-11-14-6-10-2-7v-8l4-9 4-6 9-8 11-4h15l9 4 8 6 7 8 3 8v12l-5 10-13 15-7 10-1 20v26l5 10 16 16 4 8 1 4v8l-3 9-7 11-8 7-6 3-5 1h-9l-11-4-9-7-9-9-6-4-22-2h-41l-4 1-2 4-6 7-12 9-5 3-4 1h-13l-10-4-8-6-8-9-3-9 2-11 8-14 10-13 4-9 1-7v-25l-2-15-7-14-10-11-9-4-11-2-14-1-28 1-10 3-9 6-7 6-12 6-7 2h-4v-2l-5 3-7-1-4-6 1-4 16-7 6-5 1-2v-8l-5-10-7-6-9-6-2-4 3-6 5-2 10 2 12 4 10 6 8 6 9 4 5 1h59l5-5 6-8 11-7 7-3z" fill="#FDFDFD"/>
<path transform="translate(349,801)" d="m0 0 13 1 14 4 13 8 12 11 10 9 4-2 9-10 5-6 13-10 7-3 12-2 16 1 13 4 12 7 9 9 7 14 2 9v12l-3 12-4 8-9 10-8 7-12 6-6 2-7 1h-10l-15-4-11-7-13-11-7-8-5-5-4 1-11 13-8 8-11 7-8 3-16 2-15-2-8-3-11-8-9-9-6-10-3-8v-19l4-11 9-12 11-11 12-6z" fill="#FEFEFE"/>
<path transform="translate(752,794)" d="m0 0h38l23 1 15 4 9 6 6 7 4 8 3 14v10l-4 12-7 11-6 9-1 4 4 8 4 5 5 11 12 33 1 6-7 2h-11l-11-4-4-7-10-33-7-11-7-3-10-2-10 1-3 2-1 18-1 36-4 3h-17l-5-3-1-2-1-13v-128l1-4z" fill="#FEFEFE"/>
<path transform="translate(1009,789)" d="m0 0h10l5 3 2 3v16l-1 25 10-2h22l14 3 11 6 11 11 6 10 4 13v21l-3 15-7 11-9 11-9 6-7 3-6 1h-39l-13-2-7-3-2-4-1-108v-34l3-3z" fill="#FEFEFE"/>
<path transform="translate(1073,1015)" d="m0 0h12l9 1 3 3v17l-2 18-1 6 6-1h25l12 2 9 4 8 6 7 7 7 12 3 9 1 5v22l-3 13-6 11-10 11-12 6-10 2-11 1h-40l-6-3-3-6-1-35 1-30v-80z" fill="#FEFEFE"/>
<path transform="translate(1165,834)" d="m0 0h16l14 2 12 5 9 6 9 12 6 14 1 6v18l-2 12-6 12-12 14-10 6-13 4-7 1h-20l-13-4-8-6-10-10-8-14-3-11v-21l3-12 6-11 8-10 13-9 8-3z" fill="#FEFEFE"/>
<path transform="translate(1453,835)" d="m0 0h22l17 4 9 5 8 8 6 10 4 10 1 5v18l-2 15-6 12-8 10-7 6-9 4-16 3h-25l-11-4-8-6-8-8-7-12-4-14-1-7v-10l3-12 8-16 9-10 9-6 10-4z" fill="#FEFEFE"/>
<path transform="translate(917,835)" d="m0 0h23l15 4 10 6 9 9 7 12 3 11 1 14-2 17-4 10-9 12-9 8-12 5-9 2-9 1h-10l-13-2-12-6-8-7-9-14-4-8-3-13v-9l3-15 8-17 6-7 11-7 12-5z" fill="#FEFEFE"/>
<path transform="translate(812,1018)" d="m0 0h17l21 3 11 4 11 7 4 5 2 4v13l-3 7-3 3-10-3-19-11-10-4-4-1h-14l-12 3-9 5-10 9-7 10-5 15v13l4 14 7 11 9 9 16 8 8 2h13l13-4 11-6 14-10 5-1 5 5 3 10-1 8-7 8-14 10-13 5-14 2h-18l-15-2-13-5-11-7-12-11-11-15-6-15-3-16v-18l5-16 9-16 9-10 8-7 13-8 13-5z" fill="#FEFEFE"/>
<path transform="translate(1034,1061)" d="m0 0h14l2 7 1 95-3 6h-34l-10 1h-22l-9-3-10-10-8-14-2-11v-50l1-19 1-1h17l7 2 1 66 3 12 2 3 7 2h18l10-4 2-5 1-73 6-3z" fill="#FEFEFE"/>
<path transform="translate(1585,835)" d="m0 0h25l11 6 7 7 6 10 3 15 1 20 1 43-1 5-7 3h-13l-4-2-3-7v-31l-1-33-4-9-6-3-4-1h-22l-5 1-2 11-1 19v52l-9 3-13-1-5-4v-24l1-61v-10l3-6 1-1 37-1z" fill="#FEFEFE"/>
<path transform="translate(1845,835)" d="m0 0h22l11 3 12 6 4 5 2 5-1 5-4 3-5 1h-7l-12-5-11-2-9 1-4 4 1 7 5 5 12 6 12 5 11 7 9 8 4 8v16l-5 10-7 6-10 4-18 3h-15l-9-2-6-4-5-6-3-7 1-9 2-2h9l9 3 7 4 5 1h9l6-3 2-3v-7l-5-5-12-5-16-5-12-9-6-9-2-6 1-11 7-14 8-8z" fill="#FEFEFE"/>
<path transform="translate(1753,835)" d="m0 0h24l12 3 8 4 4 9 1 9-3 3-3 2h-7l-16-6-14-1-9 2-9 7-5 6-3 7v10l3 13 5 8 8 7 10 5 9 1 9-3 13-8 7-1 3 3 2 6-1 10-4 6-8 5-10 3-10 1h-16l-15-3-10-6-7-7-8-13-4-11-1-5v-21l3-12 6-11 9-10 11-7 10-4z" fill="#FEFEFE"/>
<path transform="translate(343,814)" d="m0 0h15l13 5 13 10 9 9 5 10-1 10-5 9-11 12-11 8-10 3h-13l-10-3-12-9-8-9-4-7-1-10 2-10 6-12 7-8 7-5z"/>
<path transform="translate(457,814)" d="m0 0h17l10 4 8 6 7 7 5 9 1 4v15l-3 9-7 9-11 9-10 4h-14l-10-4-13-9-5-5-6-7-4-6v-2h-2l1-7 3-10 8-11 9-8 12-6z"/>
<path transform="translate(1273,807)" d="m0 0h5l2 2 1 5 1 21 18 1 6 3 3 7v11l-1 1-22 1-3 1-1 4-1 18v24l3 13 5 3 19 4 4 6v7l-5 4-11 2h-19l-9-3-7-7-5-12-1-5-2-47-6-17-1-2v-6l8-7 6-5 6-9z" fill="#FEFEFE"/>
<path transform="translate(898,1014)" d="m0 0h10l11 2 3 3 1 116 2 8 3 3 8 4 5 8 2 5v5l-9 2h-22l-8-3-3-4-4-13-2-13v-116z" fill="#FEFEFE"/>
<path transform="translate(1331,834)" d="m0 0 16 4 14 1 7-3 12-1 10 2 6 5v13l-4 10-11-2-12-2h-7l-7 3-1 4-2 44-1 27-3 4-12 2h-6l-4-4-1-21v-49l1-32 2-4z" fill="#FEFEFE"/>
<path transform="translate(605,947)" d="m0 0h12l10 4 8 6 6 9 3 7v16l-3 7-6 8-9 7-10 4h-12l-10-4-6-4-8-8-6-11v-16l4-7 9-10 14-7z" fill="#FEFEFE"/>
<path transform="translate(339,1205)" d="m0 0 11 2 10 6 8 9 6 12v15l-5 10-10 10-8 4-7 2-10-1-14-7-6-5-7-11-3-7v-11l5-10 9-10 11-6z" fill="#FEFEFE"/>
<path transform="translate(603,818)" d="m0 0h14l11 4 9 8 6 12 1 4v10l-3 9-9 10-9 7-7 3h-13l-11-4-10-9-6-8-2-6v-13l4-10 4-6 8-7z" fill="#FEFEFE"/>
<path transform="translate(201,818)" d="m0 0h19l9 4 8 7 5 8 3 10v9l-4 10-11 12-11 7-4 1h-10l-11-4-10-8-6-10-2-8v-12l4-11 7-8 8-5z" fill="#FEFEFE"/>
<path transform="translate(607,1077)" d="m0 0h7l13 4 8 6 6 7 3 8v13l-3 9-7 9-10 8-7 3-9 1-11-2-11-7-8-10-3-6-1-4v-11l4-10 7-9 9-6 6-2z" fill="#FEFEFE"/>
<path transform="translate(207,1206)" d="m0 0 13 1 10 6 8 8 6 12v12l-4 10-11 12-9 6-7 2h-7l-10-3-8-5-7-8-5-10v-18l5-10 7-7 8-5z" fill="#FEFEFE"/>
<path transform="translate(203,1077)" d="m0 0h11l10 3 11 8 6 8 3 8v13l-4 9-9 10-9 7-6 2h-11l-12-5-9-8-5-8-2-7v-14l4-11 9-10 7-4z" fill="#FEFEFE"/>
<path transform="translate(476,1207)" d="m0 0h8l10 3 9 6 7 8 4 10-1 13-4 10-5 6-8 6-13 4h-8l-11-4-10-9-6-9-2-5-1-8 3-10 6-8 4-5 10-6z" fill="#FEFEFE"/>
<path transform="translate(606,1207)" d="m0 0 11 1 12 6 8 7 5 10 1 4v13l-5 10-7 7-12 6-9 1-13-2-10-6-8-9-5-11v-9l4-9 9-11 8-5z" fill="#FEFEFE"/>
<path transform="translate(925,856)" d="m0 0h7l10 3 9 6 5 6 4 9 1 5v8l-3 12-4 6-8 7-12 6h-12l-7-3-9-7-6-10-2-8v-17l4-10 7-8 9-4z"/>
<path transform="translate(1455,857)" d="m0 0h16l11 4 8 7 5 10 2 9v8l-3 11-7 9-9 6-8 3h-9l-9-3-8-6-7-10-4-16v-9l3-9 10-10z"/>
<path transform="translate(1166,857)" d="m0 0h17l10 4 7 6 7 14 1 13-2 9-6 10-11 8-9 3h-8l-9-3-11-10-7-14-1-5v-13l3-7 8-9 8-5z"/>
<path transform="translate(1038,856)" d="m0 0h18l10 5 7 8 4 9 1 5v15l-4 10-8 9-10 6-4 1h-11l-6-3-7-7-2-5-1-6v-26l4-14 4-5z"/>
<path transform="translate(1111,1080)" d="m0 0h9l8 2 7 4 6 7 4 10 1 5v17l-4 10-8 9-10 4h-14l-7-2-4-4-3-10v-37l3-8 5-5z"/>
<path transform="translate(1671,835)" d="m0 0 9 1 2 3 1 71v29l-3 5h-13l-7-3-2-2-1-93 3-7 5-3z" fill="#FEFEFE"/>
<path transform="translate(813,1230)" d="m0 0 60 1 19 2-2 4-9 5-3-1v-3h-1v51l-2 4-4 2h-7l-2-1-1-5v-40l-2-8-3-4-3-1-14-1h-10l-5 2-2 5-1 9v15l2 14 4 6 3 4-1 6-4 2h-14l-8-2h-13l2-2 10-3 3-3 2-6v-20l-2-20-3-7v-3z" fill="#FEFEFE"/>
<path transform="translate(1153,1224)" d="m0 0 4 2 3 8 2 17v37l-4 9-3 2h-18l-8-3-7-8-2-5-1-6v-10l3-14 3-6 10-4 12-2 1-9 2-6z" fill="#FEFEFE"/>
<path transform="translate(785,815)" d="m0 0h12l12 2 8 5 3 6 1 4v11l-2 10-5 5-7 3-4 1h-18l-7-2-2-8v-30l2-4z"/>
<path transform="translate(206,1087)" d="m0 0h12l5 3 6 8 2 7-1 11-5 9-8 7-3 1h-12l-6-4-6-7-1-2v-13l4-10 3-5z"/>
<path transform="translate(207,828)" d="m0 0h9l8 4 5 7 2 7-1 11-4 8-8 7-6 2h-9l-6-3-7-8-1-2v-14l4-10 4-5 6-3z"/>
<path transform="translate(609,957)" d="m0 0h6l9 6 5 8 2 8-1 9-6 9-6 4-3 1h-12l-7-3-5-5-3-5-1-4v-8l3-8 7-7 8-4z"/>
<path transform="translate(608,1087)" d="m0 0h7l8 4 6 8 1 3v7l-3 10-6 9-7 4-10 1-7-3-7-7-3-4v-12l4-9 9-8z"/>
<path transform="translate(480,1085)" d="m0 0 8 2 6 5 6 10 1 8-3 10-6 9-7 4h-8l-7-3-5-5-5-6-2-4v-8l5-10 6-7 7-4z"/>
<path transform="translate(336,957)" d="m0 0h8l6 3 7 8 2 5v13l-4 8-9 10-5 2-7-3-8-7-7-10-4-7 1-5 4-6 9-8z"/>
<path transform="translate(334,1217)" d="m0 0h11l8 5 5 7 2 7v9l-3 8-5 5-6 4h-12l-8-5-6-8-2-7v-8l3-7 5-6z"/>
<path transform="translate(608,828)" d="m0 0h8l7 4 5 7 1 4-1 13-4 9-7 6-4 2h-11l-6-3-7-7-3-4v-10l5-10 9-8z"/>
<path transform="translate(475,959)" d="m0 0h9l10 4 7 7 1 3v8l-6 12-7 8-7 4h-6l-9-6-5-6-2-6v-15l3-6 6-5z"/>
<path transform="translate(206,1218)" d="m0 0h12l8 6 4 7 1 9-3 9-9 10-7 3h-9l-8-4-6-8-1-4v-9l3-9 7-6z"/>
<path transform="translate(341,1083)" d="m0 0 5 2 8 8 5 8 2 6-1 8-6 9-7 6-8 3-7-1-10-9-4-6v-7l4-9 6-8 8-7z"/>
<path transform="translate(1078,1243)" d="m0 0h14l8 4 3 5 3 9 1 6v22l-3 5-3 2h-11l2-16v-23l-4-5h-6l-3 4-1 7v32h-11l-2-1-2-13v-14l2-12 4-6 6-5z" fill="#FEFEFE"/>
<path transform="translate(746,1230)" d="m0 0 27 1 7 2-5 4-5 3-3 6v32l2 7 5 4 9 5 3 2h-29l-14-2v-4l7-5 2-4v-24l-3-14-4-8z" fill="#FEFEFE"/>
<path transform="translate(1189,1226)" d="m0 0h5l4 7v8l-1 5 1 17 4 16 6 10 5 4 4 2v5l-5 1-12-2-7-6-4-8-6-24-1-7v-14l5-12z" fill="#FEFEFE"/>
<path transform="translate(987,1236)" d="m0 0 6 1 7 6 1 4-3 14-3 11-1 6v10l8 2 14-28 5 5 1 4v12l-2 6-7 5-9 1-15-4-3-5-2-11v-22l-2-9v-6z" fill="#FEFEFE"/>
<path transform="translate(1025,1240)" d="m0 0h8l8 4 5 8 3 13 1 11v16l-5 6-3 1h-9l-6-2v-3l6-7 1-3v-16l-4-13-5-8-4-3v-2z" fill="#FEFEFE"/>
<path transform="translate(958,1234)" d="m0 0h6l4 4 3 8 2 8v6l-2 4h-2v2l-4 1 3 22v6h-13l-1-2v-13l3-13-1-8v-20z" fill="#FEFEFE"/>
<path transform="translate(474,1225)" d="m0 0h11l7 6 2 5v7l-4 6-8 5h-8l-5-4-4-9 1-8 4-6z"/>
<path transform="translate(605,1225)" d="m0 0h9l8 7 2 4v8l-6 8-5 2h-7l-7-4-4-7v-8l3-5 5-4z"/>
<path transform="translate(1665,789)" d="m0 0h8l6 3 4 5 1 4v8l-4 6-5 2h-7l-9-3-4-5v-8l4-8z" fill="#FEFEFE"/>
<path transform="translate(1137,1251)" d="m0 0h8l3 3 2 10v13l-2 9-5 4-6 1-3-1-2-4-1-9v-16l2-7z"/>
<path transform="translate(347,840)" d="m0 0h9l6 3 2 2v10l-3 4-10 1-7-3-2-4 1-9z" fill="#FEFEFE"/>
<path transform="translate(465,840)" d="m0 0h8l3 3v10l-4 5-9 2-5-2-4-5-1-7 4-4z" fill="#F4F4F4"/>
<path transform="translate(975,1254)" d="m0 0 6 1 2 3 1 8-1 1-8-1-1-9z" fill="#FEFEFE"/>
</svg>
